# xmcd
#
# Track frame offsets:
#	150
#	14172
#	32700
#	52492
#	69532
#	86920
#	101195
#	118617
#	134782
#	151215
#	164555
#	179972
#	194550
#	209167
#	226822
#	242620
#	259287
#	275457
#
# Disc length: 3860 seconds
#
# Revision: 6
# Processed by: cddbd v1.5.2PL0 Copyright (c) Steve Scherf et al.
# Submitted via: audiograbber 1.83.01
#
DISCID=290f1212
DTITLE=Various Artist - Superstar Country Hits
DYEAR=1999
DGENRE=Oldies
TTITLE0=Shania Twain - No One Needs To Know
TTITLE1=Diamond Rio - How Your Love Makes Me Feel
TTITLE2=Sammy Kershaw - Love Of My Life
TTITLE3=Martina McBride - Wild Angels
TTITLE4=George Strait - One Night At A Time
TTITLE5=Wynonna - When Love Starts Talkin'
TTITLE6=Alan Jackson - Right On The Money
TTITLE7=Terri Clark - You're Easy On The Eyes
TTITLE8=Mark Wills - Don't Laugh At Me
TTITLE9=Pam Tillis - I Said A Prayer
TTITLE10=Kenny Chesney - She's Got It All
TTITLE11=Mindy McCready - Guys Do It All The Time
TTITLE12=Blackhawk - There You Have It
TTITLE13=Clint Black - Nothin' But The Taillights
TTITLE14=Reba McEntire - I'd Rather Ride Around With You
TTITLE15=Brooks and Dunn - How Long Gone
TTITLE16=Lee Ann Womack - The Fool
TTITLE17=Vince Gill - A Little More Love
EXTD=
EXTT0=
EXTT1=
EXTT2=
EXTT3=
EXTT4=
EXTT5=
EXTT6=
EXTT7=
EXTT8=
EXTT9=
EXTT10=
EXTT11=
EXTT12=
EXTT13=
EXTT14=
EXTT15=
EXTT16=
EXTT17=
PLAYORDER=
